<svg xmlns="http://www.w3.org/2000/svg" xmlns:xlink="http://www.w3.org/1999/xlink" version="1.1" x="0px" y="0px" viewBox="0 0 90 90" enable-background="new 0 0 90 90" xml:space="preserve" fill="#FFBB00"><path d="M27.975,37.52h6c0.536,0,0.822,0.323,0.822,0.609v18.588c0,0.292-0.287,0.615-0.822,0.615h-6  c-0.533,0-0.819-0.322-0.819-0.615V38.129C27.156,37.842,27.442,37.52,27.975,37.52z M49.641,25.878  c0.494,0.838,0.703,2.448,0.703,4.557v6.098c0,0.521,0.421,0.943,0.943,0.943h10.256c0.515,0,0.905,0.267,1.129,0.83  c0.224,0.556,0.15,1.348-0.244,1.984c-0.396,0.634-1.011,0.967-1.527,0.967c-1.245,0.016-1.245,1.876,0,1.891  c0.516,0,0.907,0.267,1.131,0.824c0.218,0.561,0.15,1.354-0.245,1.99c-0.396,0.635-1.017,0.973-1.531,0.973  c-1.24,0.016-1.24,1.871,0,1.891c0.514,0,0.911,0.26,1.129,0.817c0.224,0.563,0.152,1.35-0.244,1.985  c-0.396,0.635-1.011,0.974-1.526,0.974c-0.954,0-1.302,1.25-0.495,1.75c1,1,0.203,2.984-1.151,2.984H43.63  c-1.458,0-2.432-0.224-3.76-0.994l-3.183-1.85V40.139l7.042-6.928c2.328-2.292,2.636-5.213,2.995-7.094  C47.12,24.061,48.975,24.744,49.641,25.878z M47.724,22.801c-1.375,0.109-2.578,1.285-2.859,3.005  c-0.319,1.946-0.641,4.266-2.464,6.061l-5.792,5.693c-0.287-1.141-1.4-1.932-2.634-1.932h-6c-1.428,0-2.709,1.063-2.709,2.5v18.588  c0,1.443,1.281,2.505,2.709,2.505h6c1.432,0,2.713-1.063,2.713-2.505l2.235,1.26c1.566,0.907,3.02,1.246,4.708,1.246h14.427  c2.458,0,4.125-2.885,3.146-5.131c2.348-1.317,2.854-4.457,1.328-6.15c1.943-1.688,1.905-4.35,0.62-5.662  c2.609-2.104,1.776-6.693-1.609-6.693h-9.308v-5.15c0-2.208-0.125-4.063-0.953-5.5C50.463,23.52,49.098,22.695,47.724,22.801z"></path><path d="M34.328,74.191c-1.104,1.771-2.619,2.943-4.421,3.151c-1.746,0.202-3.771-0.604-5.812-2.199  c1.848-0.859,3.547-1.76,5.411-1.968C31.365,72.962,32.688,73.343,34.328,74.191z M18.75,65.206  c1.927,0.194,3.333,1.073,4.943,2.934c-1.683,1.239-3.521,1.766-5.271,1.291c-1.698-0.458-3.281-1.958-4.584-4.197  C15.365,65.148,16.822,65.009,18.75,65.206z M8.089,51.988c1.916,0.693,3.76,1.256,4.948,2.016c1.281,0.823,2.228,2.188,2.979,4.525  c-2.031,0.48-3.932,0.24-5.355-0.88C9.281,56.561,8.412,54.561,8.089,51.988z M7.51,37.613c1.527,1.354,3.027,2.557,3.844,3.708  c0.886,1.234,1.261,2.855,1.088,5.308c-2.066-0.314-3.738-1.24-4.645-2.808C6.922,42.295,6.854,40.118,7.51,37.613z M12.828,23.836  c0.797,1.88,1.641,3.609,1.891,5c0.271,1.495-0.083,3.121-1.287,5.261c-1.733-1.162-2.854-2.714-3-4.521  C10.292,27.826,11.161,25.826,12.828,23.836z M21.912,13.394c0.255,2.021,0.442,3.913,0.307,5.318  c-0.146,1.516-0.771,2.984-2.509,4.719c-1.355-1.588-2.01-3.385-1.663-5.167C18.385,16.539,19.765,14.853,21.912,13.394z   M22.161,10.987c-3.322,1.792-5.322,4.261-5.842,6.937c-0.475,2.402,0.276,4.866,2.041,6.855c-0.74,1.047-1.412,2.125-2.016,3.24  c-0.459-1.964-1.412-3.814-2.396-6.224c-0.255-0.62-1.052-0.786-1.531-0.338c-2.756,2.582-3.963,5.546-3.745,8.26  c0.219,2.708,1.906,5.089,4.593,6.5c-0.291,1.276-0.5,2.563-0.635,3.865c-1.265-1.677-2.984-2.958-4.979-4.797  c-0.521-0.484-1.292-0.251-1.527,0.344c-1.375,3.514-1.219,6.713,0.14,9.072c1.308,2.272,3.724,3.672,6.614,3.885  c0.21,1.272,0.496,2.532,0.86,3.781c-1.798-1.071-3.844-1.667-6.38-2.593c-0.797-0.287-1.308,0.229-1.292,0.891  c0.084,3.771,1.36,6.683,3.5,8.369c2.063,1.631,4.833,2.032,7.604,1.147c0.682,1.12,1.426,2.191,2.24,3.219  c-2.146-0.35-4.317,0.057-7.115,0.088c-0.734,0.005-1.104,0.74-0.844,1.322c1.547,3.443,3.88,5.609,6.505,6.324  c2.53,0.687,5.229-0.027,7.421-1.912c1.043,0.776,2.126,1.49,3.251,2.14c-2.136,0.469-4.027,1.62-6.615,2.729  c-0.667,0.287-0.781,1.048-0.292,1.543c2.655,2.681,5.682,3.776,8.385,3.463c2.609-0.301,4.86-1.968,6.199-4.547  c0.937,0.256,1.879,0.479,2.848,0.65c1.267,0.25,1.6-1.672,0.324-1.864c-10.402-1.828-19.109-8.921-23-18.74  c-3.845-9.682-2.448-20.902,3.65-29.058c1.547-2.066,3.678-3.53,4-6.656c0.229-2.188-0.308-4.338-0.588-7.156  C23.469,11.009,22.718,10.686,22.161,10.987z"></path><path d="M55.625,74.191c1.104,1.771,2.615,2.943,4.417,3.151c1.744,0.202,3.771-0.604,5.812-2.199  c-1.849-0.859-3.546-1.76-5.406-1.968C58.589,72.962,57.261,73.343,55.625,74.191z M71.204,65.206  c-1.934,0.194-3.338,1.073-4.948,2.934c1.681,1.239,3.525,1.766,5.276,1.291c1.692-0.458,3.276-1.958,4.583-4.197  C74.589,65.148,73.13,65.009,71.204,65.206z M81.859,51.988c-1.917,0.693-3.756,1.256-4.948,2.016  c-1.281,0.823-2.229,2.188-2.979,4.525c2.037,0.48,3.934,0.24,5.36-0.88C80.667,56.561,81.542,54.561,81.859,51.988z M82.437,37.613  c-1.52,1.354-3.02,2.557-3.842,3.708c-0.885,1.234-1.256,2.855-1.084,5.308c2.063-0.314,3.74-1.24,4.641-2.808  C83.032,42.295,83.094,40.118,82.437,37.613z M77.125,23.836c-0.798,1.88-1.64,3.609-1.896,5c-0.271,1.495,0.084,3.121,1.287,5.261  c1.734-1.162,2.854-2.714,3-4.521C79.661,27.826,78.786,25.826,77.125,23.836z M68.042,13.394c-0.256,2.021-0.444,3.913-0.308,5.318  c0.141,1.516,0.766,2.984,2.505,4.719c1.354-1.588,2.01-3.385,1.661-5.167C71.563,16.539,70.182,14.853,68.042,13.394z   M67.792,10.987c3.317,1.792,5.317,4.261,5.844,6.937c0.468,2.402-0.281,4.866-2.041,6.855c0.739,1.047,1.411,2.125,2.009,3.24  c0.459-1.964,1.412-3.814,2.396-6.224c0.256-0.62,1.057-0.786,1.532-0.338c2.754,2.582,3.968,5.546,3.744,8.26  c-0.218,2.708-1.9,5.089-4.588,6.5c0.287,1.276,0.5,2.563,0.635,3.865c1.267-1.677,2.979-2.958,4.975-4.797  c0.521-0.484,1.297-0.251,1.53,0.344c1.371,3.514,1.215,6.713-0.145,9.072c-1.307,2.272-3.719,3.672-6.609,3.885  c-0.208,1.272-0.495,2.532-0.86,3.781c1.792-1.071,3.844-1.667,6.381-2.593c0.791-0.287,1.307,0.229,1.291,0.891  c-0.088,3.771-1.364,6.683-3.5,8.369c-2.063,1.631-4.833,2.032-7.604,1.147c-0.683,1.12-1.432,2.191-2.239,3.219  c2.145-0.35,4.312,0.057,7.113,0.088c0.735,0.005,1.105,0.74,0.839,1.322c-1.546,3.443-3.875,5.609-6.505,6.324  c-2.525,0.687-5.224-0.027-7.421-1.912c-1.036,0.776-2.12,1.49-3.25,2.14c2.14,0.469,4.025,1.62,6.619,2.729  c0.667,0.287,0.776,1.048,0.287,1.543c-2.651,2.681-5.678,3.776-8.386,3.463c-2.609-0.301-4.858-1.968-6.192-4.547  c-0.938,0.256-1.885,0.479-2.85,0.65c-1.265,0.25-1.604-1.672-0.322-1.864c10.401-1.828,19.104-8.921,23-18.74  c3.838-9.682,2.448-20.902-3.652-29.058c-1.547-2.066-3.681-3.53-4.004-6.656c-0.224-2.188,0.307-4.338,0.588-7.156  C66.48,11.009,67.229,10.686,67.792,10.987z"></path></svg>